<?xml version="1.0" encoding="UTF-8"?><svg id="Lag_1" xmlns="http://www.w3.org/2000/svg" viewBox="0 0 272.09 235.91"><defs><style>.cls-1{fill:#00a651;}</style></defs><path class="cls-1" d="M135.2,.01C164.37,.01,193.53-.07,222.7,.15c2.63,.02,5.93,1.3,7.77,3.14,38.94,38.97,50.86,85.72,34.49,137.67-16.4,52.04-53.46,83.89-107.39,93.01C74.2,248.08-.89,183.04,0,98.57,.42,61.04,14.16,28.77,41.16,2.46,42.69,.97,45.48,.12,47.69,.11,76.86-.04,106.02,.01,135.19,.01h.01Zm.62,27.81c-25.48,0-50.97,.07-76.45-.08-3.57-.02-5.92,1.19-8.02,3.9-19.69,25.43-27.79,54.13-22.38,85.82,12.38,72.45,88.27,111.36,154.65,79.72,62.32-29.7,80.36-112.53,36.14-165.49-2.36-2.83-4.8-3.97-8.49-3.95-25.15,.15-50.3,.08-75.45,.07h0Z"/><path class="cls-1" d="M70.62,130.15c-16.41-.03-29.26-13.17-29.13-29.8,.12-16.06,13.36-28.97,29.6-28.88,16.34,.09,29.39,13.45,29.17,29.87-.21,16.08-13.34,28.85-29.64,28.81Zm-.1-45.17c-8.68,.1-15.84,7.45-15.63,16.07,.21,8.74,7.46,15.86,16.04,15.78,8.97-.09,15.96-7.37,15.79-16.45-.17-8.77-7.25-15.51-16.2-15.41h0Z"/><path class="cls-1" d="M172.33,101.09c.25-16.21,13.44-29.12,29.55-28.88,16.49,.24,29.28,13.45,28.99,29.95-.28,16.23-13.49,29.12-29.57,28.87-16.5-.26-29.22-13.4-28.97-29.94h0Zm29.23,16.44c8.78,.04,15.91-6.99,15.96-15.75,.06-8.87-6.82-15.93-15.65-16.07-8.96-.14-16.36,7.13-16.28,16.01,.07,8.72,7.2,15.78,15.97,15.82h0Z"/><path class="cls-1" d="M102.29,131.04c16.22,0,29.19,12.94,29.23,29.17,.04,16.46-13.04,29.55-29.49,29.5-16.24-.05-29.13-12.99-29.15-29.26-.02-16.6,12.79-29.4,29.42-29.41,0,0-.01,0,0,0Zm15.75,29.34c.05-8.81-6.96-15.94-15.7-15.98-8.88-.04-15.93,6.85-16.03,15.64-.1,9.12,6.89,16.22,15.95,16.21,8.78,0,15.73-7,15.78-15.88h0Z"/><path class="cls-1" d="M137.33,73.09c16.52-.04,29.45,12.96,29.38,29.52-.07,16.16-13.16,29.23-29.26,29.2-16.51-.03-29.29-12.93-29.33-29.59-.04-16.21,12.87-29.09,29.21-29.12h0Zm-.25,45.18c8.88,.08,16.08-6.74,16.31-15.44,.23-8.8-7.19-16.45-15.94-16.45s-15.87,7.11-15.96,15.83c-.09,8.86,6.83,15.98,15.6,16.06h0Z"/><path class="cls-1" d="M172.45,131.02c16.33,.27,29.09,13.63,28.8,30.17-.27,15.71-13.64,28.64-29.5,28.54-16.71-.11-29.52-13.36-29.22-30.23,.29-16.1,13.58-28.75,29.93-28.48h-.01Zm15.24,29.29c0-8.83-6.91-15.82-15.77-15.94-8.56-.12-16.01,7.17-16.09,15.75-.08,8.92,7.27,16.27,16.16,16.15,8.87-.11,15.69-7.05,15.69-15.96h0Z"/><path class="cls-1" d="M166.82,72.22c-11.01-.09-19.65-9.06-19.52-20.24,.13-11.13,8.99-19.73,20.17-19.58,10.81,.14,19.63,9,19.66,19.74,.03,11.27-8.98,20.18-20.31,20.08Zm.19-26.43c-3.53,.07-6.61,3.29-6.47,6.77,.14,3.54,3.35,6.53,6.96,6.24,3.9-.31,5.92-2.72,6.13-6.49,.2-3.62-2.96-6.59-6.61-6.52h-.01Z"/><path class="cls-1" d="M127.57,52.65c-.14,11.02-9.18,19.75-20.27,19.59-10.95-.16-19.8-9.29-19.65-20.27,.15-10.88,9.43-19.84,20.32-19.6,11.09,.24,19.75,9.2,19.6,20.28Zm-20.05,6.22c3.5,.08,6.75-3.04,6.79-6.51,.04-3.44-3.22-6.76-6.71-6.55-3.81,.23-6.08,2.41-6.44,6.24-.33,3.53,2.77,6.73,6.35,6.82h.01Z"/></svg>