<?xml version="1.0" encoding="UTF-8"?><svg id="Lag_1" xmlns="http://www.w3.org/2000/svg" viewBox="0 0 756.77 1130.27"><defs><style>.cls-1{fill:#00a651;}</style></defs><path class="cls-1" d="M387.89,.15C458.89,.15,529.88,.41,600.88,0c22.57-.13,42.12,6.94,59.83,20.26,12.23,9.2,22.69,20.15,31.03,32.97,29.97,46.1,49.92,96.03,55.48,151,8.45,83.64-9,161.71-54.76,232.32-59.02,91.07-142.81,145.92-250.06,162.97-190.04,30.22-373.31-99.02-409.72-288.27-17.63-91.62-.8-176.85,49.24-255.51,12.76-20.06,29.44-36.08,50.92-46.73C144.82,3.06,157.46,.1,170.9,.12c72.33,.08,144.66,.04,216.99,.04h0Zm-.15,338.63c5.13-.52,10.29-.83,15.38-1.6,51.38-7.78,87.68-58.87,77.98-109.79-4.92-25.82-19.51-45.65-39.5-61.79-14.27-11.52-24.62-25.73-30.74-42.87-3.86-10.8-6.64-21.98-10.14-32.91-1.36-4.25-2.89-8.59-5.2-12.36-3.96-6.45-10.63-6.76-15.18-.76-2.47,3.25-4.41,7.1-5.78,10.96-3.21,9.1-5.98,18.35-8.86,27.57-6.79,21.79-17.73,40-36.82,54.18-32.7,24.29-44.33,67.24-30.98,105.33,13.34,38.05,49.57,63.76,89.82,64.03h.02Zm206.75,101.39c0-52.26-42.9-95.1-95.19-95.1s-94.78,42.64-94.92,94.77c-.14,52.37,42.53,95.28,94.84,95.36,52.24,.08,95.29-42.85,95.28-95.03h-.01ZM64.59,246.88c-.1,51.94,42.6,94.91,94.62,95.2,52.14,.28,95.29-42.52,95.54-94.79,.25-52.17-42.52-95.17-94.89-95.38-52.17-.21-95.17,42.65-95.27,94.97Zm111.88,193.05c-.12,52.35,42.62,95.25,94.91,95.28,52.06,.03,94.91-42.57,95.18-94.61,.27-52.2-42.62-95.43-94.76-95.52-52.44-.09-95.21,42.47-95.33,94.85h0Zm344.16-192.9c.01,52.27,42.98,95.17,95.21,95.04,51.99-.12,94.79-42.94,94.89-94.94,.1-52.22-42.87-95.28-95.04-95.23-52.39,.05-95.08,42.76-95.06,95.13h0ZM208.34,86.75c-.04,35.33,28.95,64.39,64.18,64.36,35.21-.04,64.32-29.23,64.23-64.42-.08-35.06-28.91-63.87-64.04-64.02-35.35-.15-64.33,28.7-64.37,64.08Zm226.86,.06c-.06,35.05,28.73,64.08,63.77,64.3,35.18,.22,64.49-28.77,64.68-63.98,.19-35.21-28.77-64.33-64.11-64.46-35.32-.14-64.27,28.73-64.34,64.14h0Z"/><path class="cls-1" d="M375.26,753.31h192.99c97.37,0,178.02,73.14,187.59,170.1,10.27,103.99-65.86,196.57-170.02,205.55-24.33,2.1-48.95,1.03-73.44,1.05-64.83,.05-129.66-.11-194.49-.18-43.5-.04-87,.03-130.49-.12-50.6-.18-94.62-17.79-130.08-53.56-53.03-53.5-69.91-118.12-47.94-189.9,21.76-71.09,71.88-113.87,144.61-129.56,9.53-2.05,19.5-2.78,29.28-2.82,64-.24,127.99-.12,191.99-.12v-.45h0Zm-186.25,26.9c-88.95-.03-161.74,72.86-161.51,161.71,.23,88.89,72.74,161.31,161.46,161.26,88.85-.05,161.48-72.54,161.52-161.21,.04-89.08-72.49-161.73-161.47-161.76h0Zm217.87,161.06c-.1,89.13,72.3,161.79,161.32,161.92,88.94,.12,161.89-72.78,161.66-161.56-.22-88.77-72.48-161.29-160.81-161.42-89.24-.12-162.07,72.21-162.17,161.06h0Z"/><path class="cls-1" d="M416.98,243.38c.04,16.54-12.88,29.53-29.36,29.53s-29.42-13.1-29.34-29.58c.08-16.3,12.87-29.14,29.14-29.25,16.51-.11,29.51,12.78,29.55,29.3h.01Z"/><path class="cls-1" d="M528.72,440.11c0,16.57-12.92,29.45-29.45,29.37-16.53-.08-29.39-13.06-29.3-29.57,.1-16.18,13.05-29.12,29.25-29.22,16.41-.1,29.5,12.96,29.49,29.42h.01Z"/><path class="cls-1" d="M159.59,276.3c-16.49-.03-29.56-13.17-29.39-29.55,.17-16.38,13.53-29.53,29.77-29.31,16.22,.23,29,13.16,29.08,29.43,.08,16.47-12.93,29.46-29.46,29.42h0Z"/><path class="cls-1" d="M300.76,440.1c.02,16.6-12.82,29.43-29.4,29.38-16.47-.05-29.46-13.14-29.33-29.56,.13-16.23,12.99-29.05,29.26-29.18,16.47-.13,29.46,12.81,29.47,29.36h0Z"/><path class="cls-1" d="M615.78,276.3c-16.47,.1-29.54-12.85-29.62-29.34-.08-16.21,13.35-29.61,29.58-29.51,16.23,.1,29.12,12.97,29.26,29.22,.14,16.57-12.64,29.53-29.21,29.63h-.01Z"/><path class="cls-1" d="M251.51,86.9c0-12.09,9.09-21.14,21.17-21.04,11.76,.1,20.84,9.2,20.88,20.92,.04,11.84-9.41,21.24-21.25,21.14-11.7-.1-20.77-9.28-20.79-21.02h0Z"/><path class="cls-1" d="M478.36,86.23c.33-11.98,9.77-20.77,21.87-20.36,11.65,.4,20.6,9.94,20.23,21.58s-9.82,20.66-21.46,20.46c-11.89-.2-20.97-9.75-20.65-21.69h.01Z"/><path class="cls-1" d="M223.03,941.88c-.13,19.12-15.5,34.27-34.49,33.99-18.83-.28-33.72-15.47-33.66-34.36,.06-18.8,15.2-33.92,34.03-33.99,19-.07,34.24,15.28,34.11,34.35h.01Z"/><path class="cls-1" d="M535.98,941.84c-.07-19.01,15.25-34.38,34.22-34.32,18.78,.06,33.93,15.2,34.04,34.02,.11,18.95-15.28,34.37-34.24,34.33-18.76-.05-33.95-15.23-34.02-34.02h0Z"/></svg>