<?xml version="1.0" encoding="UTF-8"?><svg id="Lag_1" xmlns="http://www.w3.org/2000/svg" viewBox="0 0 216.8 216.99"><defs><style>.cls-1{fill:#00a651;}</style></defs><path class="cls-1" d="M0,107.94c0-17.29,4-33.74,11.92-48.99,3.44-6.62,4.07-12.71,1.66-19.43-1.06-2.96-.52-5.23,1.94-7.47,4.43-4.03,8.74-8.24,12.67-12.75,2.81-3.23,5.75-4.03,9.59-2.65,6.71,2.42,12.58,1.05,18.85-2.46C84.24-1.31,113.27-4.32,143.29,6.18c7.03,2.46,13.81,5.84,20.3,9.51,4.14,2.35,8,3.17,12.25,1.43,5.18-2.12,8.85-.67,12.42,3.53,4.08,4.8,8.79,9.08,13.38,13.42,2.06,1.94,2.87,3.79,1.59,6.49-3.31,6.97-2.1,13.16,1.65,20.04,26.33,48.32,9.59,121.7-55.88,147.95-40.82,16.36-78.77,8.46-112.44-19.66C11.34,167.84,.25,140.32,0,107.94Zm5.81,.08c.65,6.29,1.03,12.62,2.04,18.84,.88,5.4,2.1,10.82,3.85,16,12.17,36.04,51.94,65.75,90.17,67.34,39.55,1.64,71.27-13.78,92.48-46.92,20.37-31.83,22.19-66.02,4.9-100.23-3.68-7.28-6.73-13.88-2.75-21.93,.53-1.08-.39-3.51-1.4-4.61-3.81-4.18-7.8-8.23-12.02-12-1.23-1.1-3.78-2.01-5.13-1.48-6.86,2.65-12.87,1.38-18.63-2.77-1.47-1.06-3.22-1.74-4.85-2.57-18.93-9.66-38.85-13.43-60.01-10.41-15.3,2.19-28.87,8.77-42.28,15.92-1.74,.93-4.35,1.79-5.96,1.15-9.45-3.74-16.15-.22-21.61,7.35-.29,.4-.63,.81-1.03,1.08-3.88,2.62-4.65,6-2.94,10.31,1.93,4.87,1.33,9.35-1.23,14.2-8.34,15.8-13.37,32.6-13.61,50.73,0,0,.01,0,.01,0Z"/><path class="cls-1" d="M95.51,109.15c.12,20.17-15.14,36.33-34.47,36.53-19.63,.2-35.39-15.75-35.61-36.03-.21-20.12,15.54-36.49,35.12-36.51,19.47-.01,34.84,15.82,34.96,36.01Zm-47.6,.43c.08,7.7,5.82,13.87,12.8,13.77,6.93-.1,12.54-6.44,12.47-14.11-.07-7.69-5.8-13.86-12.81-13.77-6.95,.09-12.55,6.43-12.46,14.11Z"/><path class="cls-1" d="M121.95,109.32c.04-20.27,15.75-36.31,35.4-36.17,19.27,.14,34.88,16.4,34.88,36.33s-15.8,36.16-35.03,36.2c-19.64,.04-35.3-16.11-35.26-36.36h0Zm47.76,.18c.07-7.63-5.62-13.97-12.59-14.03-6.94-.06-12.74,6.22-12.79,13.84-.05,7.61,5.66,13.97,12.59,14.03,6.97,.06,12.72-6.16,12.79-13.84Z"/><path class="cls-1" d="M108.44,74.41c-14.41,.05-26.25-11.68-26.21-25.93,.04-14.02,11.74-25.68,25.9-25.81,14.32-.13,26.14,11.64,26.09,26-.04,14.13-11.63,25.7-25.78,25.75h0Zm-7.68-4.63c1.45-3.79,2.03-7.29,4-9.63,1.08-1.28,5.7-1.63,6.63-.57,2.29,2.61,3.36,6.29,5.11,9.91,5.9-2.06,10.7-6.79,13.23-14.19-7.54,.48-10.72-1.55-10.82-6.61-.1-5.17,3.35-7.48,10.76-7.01-2.49-7.23-7.12-11.97-14.55-14.57,.49,7.28-1.67,10.83-6.28,11.08-4.78,.26-7.21-3.45-7.01-10.69-7.35,1.44-13.19,7.25-14.27,14.21,6-.5,9.12,1.41,9.64,5.9,.57,4.91-2.31,7.34-10.14,8.27,2.65,7.3,7.63,11.83,13.71,13.88v.02h0Zm30.99-21.16c-2.69-2.13-4.39-4.51-5.93-4.41-1.59,.1-4.39,2.79-4.23,4.01,.25,1.8,2.43,4.21,4.21,4.64,1.27,.31,3.23-2.19,5.95-4.24Zm-23.54-11.02c2.21-2.86,4.65-4.67,4.44-6.08-.28-1.85-2.65-3.38-4.12-5.04-1.45,1.52-3.85,2.91-4.07,4.59-.21,1.58,1.88,3.46,3.76,6.53h-.01Zm-18.01,4.46c-1.92,3.02-4.17,5.02-3.86,6.45,.39,1.79,2.89,3.11,4.48,4.63,1.34-1.62,3.66-3.2,3.74-4.88,.07-1.61-2.2-3.31-4.36-6.2Zm24.42,23.28c-2.79-1.93-4.62-4.19-6.15-3.99-1.59,.2-4.22,3.03-3.98,4.24,.35,1.78,2.67,4.05,4.47,4.37,1.29,.23,3.08-2.39,5.67-4.61h0Z"/><path class="cls-1" d="M108.19,195.6c-14.13-.04-25.85-11.64-25.97-25.69-.12-14.25,11.72-26.02,26.14-25.99,14.26,.03,25.82,11.51,25.85,25.66,.03,14.42-11.61,26.05-26.03,26.01h0Zm-21.23-32.82c6.25-.45,9.8,1.62,10.13,5.96,.13,1.71-.14,4.28-1.23,5.08-2.43,1.77-5.49,2.67-8.56,4.04,2.47,6.6,7.44,11.16,14.85,13.63-.82-7.63,1.3-11.5,6.11-11.7,4.92-.21,7.2,3.49,6.85,11.54,7.14-2.77,12.18-7.23,14.51-14.74-7.23,.46-10.63-1.75-10.71-6.69-.08-5.09,3.52-7.52,10.44-7.07-2.12-7.48-7.46-12.68-14.25-13.89,.54,6.66-1.53,10.36-6.16,10.37-1.66,0-4.16-.66-4.82-1.84-1.5-2.65-2.08-5.8-3.14-9.08-6.34,2.39-11.37,6.75-14.02,14.39h0Zm44.91,7.26c-2.71-2.19-4.33-4.51-5.87-4.46-1.61,.06-3.14,2.4-4.71,3.74,1.43,1.66,2.62,4.2,4.38,4.7,1.27,.36,3.3-2.01,6.2-3.98Zm-17.17,17.12c-2.65-2.19-4.26-4.56-5.83-4.52-1.58,.03-4.47,2.61-4.33,3.79,.21,1.81,2.28,4.26,4.02,4.73,1.28,.35,3.3-2.04,6.13-3.99h.01Zm-6.15-28.33c2.04-2.96,4.38-4.88,4.11-6.33-.33-1.8-2.82-3.2-4.37-4.78-1.37,1.58-3.71,3.1-3.83,4.77-.11,1.62,2.07,3.4,4.08,6.34h.01Zm-18.5,17.36c2.26-2.84,4.73-4.62,4.53-6.01-.26-1.8-2.66-3.28-4.14-4.9-1.46,1.46-3.88,2.78-4.09,4.41-.21,1.57,1.84,3.45,3.71,6.51h0Z"/></svg>