<?xml version="1.0" encoding="UTF-8"?>
<svg xmlns="http://www.w3.org/2000/svg" xmlns:xlink="http://www.w3.org/1999/xlink" viewBox="0 0 96 96" width="96px" height="96px">
<g id="surface74154016">
<path style=" stroke:none;fill-rule:nonzero;fill:rgb(0%,65.098041%,31.764707%);fill-opacity:1;" d="M 48 8 C 25.90625 8 8 25.90625 8 48 C 8 70.09375 25.90625 88 48 88 C 70.09375 88 88 70.09375 88 48 C 88 25.90625 70.09375 8 48 8 Z M 58.34375 64 L 45.171875 50.828125 C 44.421875 50.074219 44 49.058594 44 48 L 44 28 C 44 25.792969 45.792969 24 48 24 C 50.207031 24 52 25.792969 52 28 L 52 46.34375 L 64 58.34375 C 65.558594 59.902344 65.558594 62.441406 64 64 C 62.441406 65.558594 59.902344 65.558594 58.34375 64 Z M 58.34375 64 "/>
</g>
</svg>
