<?xml version="1.0" encoding="UTF-8"?><svg id="Capa_1" xmlns="http://www.w3.org/2000/svg" viewBox="0 0 309.5 309.5"><defs><style>.cls-1{fill:#fff;}</style></defs><path class="cls-1" d="M154.75,0C69.28,0,0,69.28,0,154.75s69.28,154.75,154.75,154.75,154.75-69.28,154.75-154.75S240.21,0,154.75,0Zm81.71,202.95c4.21,4.21,6.53,9.81,6.53,15.76s-2.32,11.55-6.53,15.76c-4.2,4.21-9.8,6.53-15.75,6.53s-11.55-2.32-15.76-6.53l-50.2-50.21-50.22,50.21c-4.2,4.21-9.79,6.53-15.75,6.53s-11.55-2.32-15.76-6.53c-4.21-4.21-6.53-9.81-6.53-15.76s2.32-11.55,6.53-15.76l50.22-50.21-50.22-50.21c-4.21-4.21-6.53-9.8-6.53-15.75s2.32-11.55,6.53-15.76c4.2-4.21,9.8-6.53,15.76-6.53s11.55,2.32,15.75,6.53l50.21,50.22,50.21-50.22c4.21-4.21,9.8-6.53,15.75-6.53s11.55,2.32,15.76,6.53c4.21,4.21,6.53,9.81,6.53,15.76s-2.32,11.55-6.53,15.75l-50.21,50.21,50.2,50.2Z"/></svg>