<?xml version="1.0" encoding="UTF-8"?><svg id="Layer_1" xmlns="http://www.w3.org/2000/svg" viewBox="0 0 225 240.72"><defs><style>.cls-1{fill:#07a651;}.cls-2{fill:#fff;}</style></defs><polygon class="cls-1" points="110 240.72 120.9 221.84 99.1 221.84 110 240.72"/><circle class="cls-2" cx="112.35" cy="112.39" r="107.04"/><g><path class="cls-1" d="M0,116c0-2.33,0-4.67,0-7,1.11-6.99,1.96-14.04,3.37-20.98C12.24,44.5,50.96,8.07,94.36,2.23,99.58,1.53,104.79,.75,110,0c2,0,4,0,6,0,1.58,.41,3.14,.97,4.74,1.2,5.23,.76,10.55,1.06,15.71,2.13,44.37,9.2,79.66,46.69,86.34,91.55,.75,5.04,1.48,10.08,2.21,15.12v6c-1.09,6.83-1.97,13.69-3.31,20.47-8.56,43.37-46.83,79.77-90.58,86.28-5.04,.75-10.08,1.5-15.11,2.25h-6c-1.92-.41-3.83-.94-5.77-1.22-5.23-.74-10.56-1.03-15.72-2.11C43.82,212.32,9.23,175.57,2.17,130.13c-.73-4.71-1.45-9.42-2.17-14.13Zm112.72,100.33c55.87,.79,101.69-45.31,103.7-99.54,2.3-61.83-48.69-108.08-103.19-108.35C55.19,8.14,7.2,57.16,8.41,114.76c1.16,54.97,47.91,102.82,104.31,101.57Z"/><path class="cls-1" d="M160.7,58.27c.33,2.07,.9,4.14,.95,6.22,.14,6.64,.2,6.59,6.65,6.67,3.91,.04,5.21-1.37,5.16-5.29-.03-2.44-1.86-5.96,2.9-7.88,.22,2.37,.44,4.24,.55,6.11,.17,3.06-.74,6.61,3.84,7.43,.44,.08,.86,.94,1.08,1.52,3.53,9.44-1.03,20.86-10.04,26.2-1.25,.74-2.08,3.2-2.1,4.88-.15,17.33-.1,34.66-.09,51.99,0,4.91-1.12,9.29-5.64,12.01-7.56,4.54-16.41-.88-16.55-10.29-.17-11.5-.11-23-.01-34.49,.03-4.07-1.32-6.7-6.35-7.32-.16,1.86-.42,3.56-.42,5.26-.04,11,.04,22-.04,32.99-.06,8.31-.63,16.67,3.76,24.29,.31,.54,.35,1.28,.39,1.93,.03,.48-.14,.97-.31,1.93H59.08c.64-2.33,.9-4.44,1.77-6.26,2.86-6,3.6-12.24,3.56-18.85-.2-29.66-.09-59.32-.08-88.98,0-8.15,1.88-10.13,9.79-10.14,19-.02,37.99-.03,56.99,0,7.12,.01,9.44,2.36,9.46,9.63,.05,14.47,.01,28.95,.01,43.26,10,3.94,10.99,5.43,11,15.93,0,10.16-.03,20.33,.02,30.49,.03,5.1,2.57,8.22,6.61,8.34,4.15,.13,7.14-3.27,7.15-8.37,.03-17.66-.02-35.33,.05-52.99,0-2.57-.4-4.17-3.29-5.18-6.38-2.23-9.08-7.49-9.6-13.9-.28-3.48-.11-7-.04-10.49,.02-.95,.27-2.61,.71-2.72,6.92-1.7,4.54-7.3,5.06-11.68,.07-.63,.33-1.23,.5-1.85l1.97-.41Zm-24.64,107.79c.1-2.1,.25-3.72,.25-5.35,.01-30.83,.02-61.65,0-92.48,0-6.02-.5-6.51-6.62-6.52-17.66-.02-35.32,0-52.99,0-8.18,0-8.61,.39-8.62,8.81-.03,29.66-.02,59.32,.01,88.98,0,2.12,.34,4.23,.55,6.57h67.41Zm3.14,12.91c-.8-7.47-1.73-8.39-8.27-8.39-19.32,0-38.65,0-57.97,0-6.36,0-7.57,1.26-7.94,8.39h74.19Zm28.59-104.28q-11.35,0-11.14,10.81c.14,6.92,4.06,10.89,10.74,10.9,6.65,0,10.72-4.02,10.92-10.78q.32-10.92-10.53-10.92Z"/><path class="cls-1" d="M97.74,111.4c6.18,0,11.14-.05,16.11,.01,5.62,.08,7.03,2.08,4.85,7.09-3.38,7.76-6.74,15.55-10.54,23.1-.83,1.65-3.54,2.35-5.38,3.5-.31-2.19-1.45-4.68-.77-6.5,2.4-6.46,5.43-12.69,8.61-19.91-6.27,0-11.55,.06-16.82-.02-5.05-.08-6.29-1.94-4.28-6.5,3.48-7.9,7.12-15.73,10.6-23.63,1.14-2.59,2.85-4.75,5.55-3.03,1.13,.72,1.56,4.1,.93,5.74-2.49,6.46-5.52,12.71-8.85,20.15Z"/></g></svg>