<?xml version="1.0" encoding="UTF-8"?><svg id="Lag_1" xmlns="http://www.w3.org/2000/svg" viewBox="0 0 397.2 88.01"><defs><style>.cls-1{fill:#fff;}.cls-2{fill:#00983a;}</style></defs><g id="Tribble"><path id="r" class="cls-2" d="M148.23,32.31c-.69,.92,2.09-3.67,3.67-4.91,1.83-1.44,3.08-2.39,4.72-2.98,3.87-1.38,5.51-2.04,7.95-2.04,.55,0,1.11,.05,1.68,.16,2.24,.41,3.31,3.03,2.11,4.97h0c-.74,1.19-2.16,1.79-3.53,1.48-.49-.11-.94-.17-1.35-.17-2.21,0-4.34,.91-6.39,2.72-2.05,1.82-3.62,4.63-4.69,8.45-.82,2.94-1.23,8.87-1.23,17.81v14.13c0,1.82-1.48,3.3-3.3,3.3h-.16c-1.82,0-3.3-1.48-3.3-3.3v-23.07c0-4.24,.4-10.08,2.46-13.78"/><circle id="i" class="cls-2" cx="179.53" cy="8.15" r="4.24"/><path id="b" class="cls-2" d="M197.53,57.82c-.5-1.09-1.03-2.34-1.41-4.02-.4-1.73-.48-3.22-.48-4.24V5.69c0-1.77,1.44-3.21,3.21-3.21h.21c1.77,0,3.21,1.44,3.21,3.21v14.6c0,3.64,3.82,6.01,7.08,4.4l2.24-1.11c3.44-1.69,7.21-2.53,11.31-2.53,7.29,0,13.51,2.65,18.67,7.93,5.16,5.29,7.74,11.71,7.74,19.25s-2.6,13.81-7.81,19.09c-5.2,5.27-11.47,7.91-18.78,7.91-4.2,0-8-.9-11.4-2.7-1.01-.54-1.35-.71-1.64-.88-1.81-1.08-4.4-2.27-7.59-5.96-1.43-1.65-3.43-5.44-4.55-7.87Zm24.91,10.35c3.69,0,7.09-.91,10.21-2.72,3.12-1.82,5.6-4.37,7.44-7.65,1.84-3.28,2.76-6.76,2.76-10.42s-.93-7.15-2.79-10.47c-1.86-3.32-4.36-5.9-7.49-7.74-3.13-1.85-6.48-2.77-10.04-2.77s-7.06,.92-10.33,2.77c-3.26,1.85-5.77,4.33-7.51,7.46-1.75,3.13-2.62,6.65-2.62,10.56,0,5.97,1.96,10.96,5.88,14.97,3.92,4.01,8.75,6.02,14.48,6.02Zm-20.37,10.59"/><path id="b-2" class="cls-2" d="M262.09,47.47V6.46c0-1.83,1.48-3.32,3.32-3.32h0c1.83,0,3.32,1.48,3.32,3.32V24.08c0,2.72,3.11,4.3,5.29,2.66,1.29-.97,2.63-1.8,4.03-2.49,3.44-1.69,7.21-2.53,11.31-2.53,7.29,0,13.51,2.65,18.67,7.93,5.16,5.29,7.74,11.71,7.74,19.25s-2.6,13.81-7.81,19.09c-5.21,5.27-11.47,7.91-18.78,7.91-4.2,0-8-.9-11.4-2.7-3.16-1.67-5.98-4.11-8.45-7.32-.39-.51-.76-1.05-1.11-1.59l-1.67-2.56c-1.2-1.85-2.15-3.86-2.8-5.97l-.76-2.46c-.58-1.88-.88-3.85-.88-5.82Zm26.52,22.03c3.69,0,7.09-.91,10.21-2.72,3.12-1.82,5.6-4.37,7.44-7.65,1.84-3.28,2.76-6.76,2.76-10.42s-.93-7.15-2.79-10.47c-1.86-3.32-4.36-5.9-7.49-7.74-3.13-1.85-6.48-2.77-10.04-2.77s-7.06,.92-10.33,2.77c-3.26,1.85-5.77,4.33-7.51,7.46-1.75,3.13-2.62,6.65-2.62,10.56,0,5.97,1.96,10.96,5.88,14.97,3.92,4.01,8.75,6.02,14.48,6.02Z"/><path id="I" class="cls-2" d="M179.43,23.45h0c1.64,0,2.97,1.05,2.97,2.35v46.01c0,1.3-1.33,2.35-2.97,2.35h0c-1.64,0-2.97-1.05-2.97-2.35V25.8c0-1.3,1.33-2.35,2.97-2.35Z"/><path id="t" class="cls-2" d="M114.28,21.12m6.1,0V5.63c0-3.11,1.71-5.63,3.81-5.63h0c1.75,0,3.18,2.1,3.18,4.69v11.98s7.69,0,7.69,0c1.41,0,2.55,1.69,2.55,3.76h0c0,2.36-1.3,4.27-2.89,4.27h-7.35s0,31.29,0,31.29c0,7.19,1.38,11.27,5.36,11.27,.5,0,.97-.03,1.4-.07,1.53-.16,2.84,1.59,2.93,3.85h0c.09,2.13-.91,4.05-2.34,4.41-1.1,.28-2.4,.45-3.86,.45-3.33,0-6.01-1.56-7.72-4.44-2.03-3.12-2.76-8.27-2.76-15.11V24.7"/><path id="L" class="cls-2" d="M330.15,3.15h0c1.83,0,3.32,1.48,3.32,3.32V71.26c0,1.83-1.48,3.32-3.32,3.32h0c-1.83,0-3.32-1.48-3.32-3.32V6.46c0-1.83,1.48-3.32,3.32-3.32ZM74.45,88.01"/><path id="E" class="cls-2" d="M395.29,59.92h0c.51,.27,.72,.92,.44,1.43-1.72,3.17-3.67,5.76-5.86,7.78-2.4,2.21-5.1,3.89-8.11,5.04-3,1.15-6.4,1.73-10.19,1.73-8.41,0-14.98-2.75-19.72-8.26-4.74-5.51-7.11-11.74-7.11-18.69,0-6.54,2.01-12.36,6.02-17.48,5.09-6.5,11.9-9.76,20.43-9.76s15.8,3.33,21.05,9.99c2.28,2.88,3.87,6.19,4.78,9.94s-2.01,7.68-6.03,7.68h-35.27c-2.35,0-4.15,2.15-3.7,4.46,.78,4.01,2.54,7.43,5.28,10.26,3.7,3.83,8.27,5.74,13.71,5.74,2.62,0,5.18-.46,7.66-1.37,2.48-.91,4.59-2.12,6.33-3.63,.94-.81,1.92-1.9,2.94-3.26,1.71-2.27,4.84-2.93,7.36-1.61Zm-6.03-16.32c.71,0,1.2-.69,1-1.37-.86-2.91-2.03-5.28-3.49-7.11-1.65-2.06-3.82-3.74-6.51-5.02-2.92-1.4-6.16-2.09-9.4-2.03-4.88,.09-9.08,1.71-12.62,4.87-1.77,1.58-3.25,3.68-4.45,6.32-.92,2.04,.62,4.34,2.86,4.34h32.6Z"/></g><path id="path2072" class="cls-2" d="M54.4,12.45h10.53c5.73,0,8.77,2.7,10.17,5.86l7.45,16.6c2.95,.33,8.19,3.32,8.19,8.99v21.12h-7.25v6.74c0,8.31-13.62,8.21-13.62,0v-6.74H20.87v6.74c0,8.21-13.62,8.31-13.62,0v-6.74H0v-21.12c0-5.67,5.23-8.66,8.18-8.99l7.45-16.6c1.4-3.16,4.44-5.86,10.17-5.86h10.65"/><path id="path2082" class="cls-1" d="M76.9,52.22c-2.48,0-4.49-2.05-4.49-4.58s2.01-4.58,4.49-4.58,4.49,2.05,4.49,4.58-2.01,4.58-4.49,4.58Z"/><path id="path2076" class="cls-1" d="M45.37,35.03H18.1l5.19-13.84c.65-1.98,1.62-3.41,3.9-3.43H63.56c2.27,.02,3.25,1.45,3.9,3.43l5.19,13.84h-27.28Z"/><path id="path2082-2" class="cls-1" d="M13.38,50.9c-2.48,0-4.49-2.05-4.49-4.58s2.01-4.58,4.49-4.58,4.49,2.05,4.49,4.58-2.01,4.58-4.49,4.58Z"/></svg>