<?xml version="1.0" encoding="UTF-8"?><svg xmlns="http://www.w3.org/2000/svg" viewBox="0 0 348.08 348.08"><defs><style>.cls-1{fill:#fdfffe;}.cls-2{fill:#00a651;stroke:#000;stroke-miterlimit:10;}</style></defs><g id="Lag_2"><rect class="cls-2" x=".5" y=".5" width="347.08" height="347.08" rx="173.54" ry="173.54"/></g><g id="Capa_1"><g id="Arrow_Up_Circle"><path class="cls-1" d="M182.64,57.26c-2.26-2.24-5.43-3.53-8.6-3.53s-6.33,1.3-8.59,3.53l-84.2,83c-4.75,4.7-4.74,12.32,0,17.01,4.75,4.7,12.44,4.7,17.19,0l63.46-62.56v187.6c0,6.64,5.44,12.03,12.15,12.03s12.15-5.39,12.15-12.03V94.73l63.46,62.56c4.74,4.69,12.44,4.69,17.18,0,4.74-4.7,4.74-12.32,0-17.01L182.64,57.26Z"/></g></g></svg>